<svg version="1.1" xmlns="http://www.w3.org/2000/svg" xmlns:xlink="http://www.w3.org/1999/xlink" x="0px" y="0px"
    viewBox="335 345 110 75" xml:space="preserve">
    <link xmlns="http://www.w3.org/1999/xhtml" rel="stylesheet" href="css/style.css" type="text/css" />
    <switch>

        <g class="top-arch">


            <g class="molar-top-right">
                <g class="molar-ext">
                    <path
                        d="M423.89,406.19c0,0-2.84,2.42-3.26,2.79c-0.42,0.37-0.84,1.3-0.33,2.37s2.6,4.09,3.16,5.12 s1.02,1.16,2.23,1.12c1.21-0.05,2.6-0.28,3.81-0.6c1.21-0.33,3.3-0.84,3.86-1.16c0.56-0.33,1.95-2.14,2-3.21 s-0.09-1.95-0.09-2.79c0-0.84-0.7-2.6-2.33-3.44c-1.63-0.84-3.07-1.53-4.09-1.53s-2.23,0.56-2.98,0.93 C425.14,406.14,424.38,406.35,423.89,406.19z" />
                </g>
                <g class="molar-int">
                    <path
                        d="M423.98,409.82c-0.45,0.74-0.64,1.57-0.41,2.34c0.19,0.78,0.76,1.42,1.48,1.89 c-0.43-0.09-0.83-0.32-1.16-0.63c-0.34-0.31-0.56-0.73-0.7-1.16c-0.1-0.45-0.12-0.93,0.04-1.36 C423.37,410.47,423.63,410.08,423.98,409.82z" />
                    <path
                        d="M426.77,412.84c0.29-0.25,0.56-0.51,0.79-0.79c0.22-0.28,0.4-0.58,0.41-0.9c0.03-0.31-0.08-0.66-0.28-0.93 c-0.2-0.28-0.49-0.51-0.83-0.69c0.39,0.02,0.77,0.2,1.06,0.49c0.29,0.3,0.45,0.72,0.44,1.16c-0.05,0.44-0.29,0.81-0.59,1.08 C427.48,412.53,427.14,412.73,426.77,412.84z" />
                    <path
                        d="M428.86,409.07c-0.18,0.34-0.32,0.68-0.41,1.03c-0.08,0.34-0.14,0.72-0.05,1.01 c0.06,0.31,0.3,0.57,0.58,0.77c0.29,0.2,0.62,0.37,1,0.44c-0.38,0.1-0.79,0-1.16-0.17c-0.36-0.18-0.69-0.5-0.81-0.94 c-0.08-0.44,0-0.84,0.15-1.21C428.33,409.64,428.56,409.31,428.86,409.07z" />
                    <path
                        d="M432.68,408.84c0.43,0.18,0.81,0.47,1.13,0.83c0.31,0.36,0.53,0.84,0.55,1.35c0,0.51-0.18,1-0.48,1.38 c-0.3,0.38-0.68,0.68-1.11,0.86c0.66-0.63,1.23-1.39,1.19-2.23c0.01-0.41-0.17-0.81-0.4-1.18 C433.32,409.49,433.02,409.16,432.68,408.84z" />
                </g>
            </g>


            <g class="molar-top-left">
                <g class="molar-ext">
                    <path
                        d="M352.73,405.8c2.65,0.35,7.19,2.44,7.33,3.77c0.14,1.33-0.7,3.07-1.19,4.33c-0.49,1.26-0.84,2.58-1.95,2.58 s-5.93-0.21-6.91-0.14s-3.42-1.67-3.63-3.77c-0.21-2.09-0.14-4.88-0.14-5.72c0-0.84,0.98-1.6,2.51-1.53 C350.28,405.38,352.73,405.8,352.73,405.8z" />
                </g>
                <g class="molar-int">
                    <path
                        d="M347.74,411.9c-0.22-0.4-0.34-0.84-0.39-1.3c-0.05-0.46,0.02-0.95,0.23-1.39c0.23-0.41,0.57-0.79,1-1 c0.43-0.21,0.93-0.26,1.36-0.11c-0.91,0.03-1.65,0.54-2.01,1.29c-0.2,0.35-0.26,0.77-0.28,1.2 C347.63,411.02,347.67,411.45,347.74,411.9z" />
                    <path
                        d="M357.71,410.82c0.25,0.37,0.4,0.8,0.47,1.26c0.06,0.45-0.01,0.94-0.22,1.37c-0.23,0.4-0.52,0.78-0.94,1.02 c-0.42,0.24-0.9,0.26-1.33,0.22c0.43-0.12,0.85-0.22,1.17-0.48c0.31-0.24,0.57-0.58,0.75-0.95c0.2-0.34,0.26-0.76,0.27-1.17 C357.88,411.68,357.81,411.25,357.71,410.82z" />
                    <path
                        d="M353.25,413.09c-0.37-0.15-0.69-0.45-0.88-0.83c-0.19-0.38-0.23-0.83-0.17-1.24 c0.08-0.4,0.27-0.86,0.67-1.08c0.39-0.22,0.85-0.21,1.21-0.06c-0.39,0.01-0.78,0.1-1.04,0.31c-0.27,0.21-0.4,0.54-0.45,0.9 C352.42,411.79,352.69,412.52,353.25,413.09z" />
                    <path
                        d="M350.18,411.8c0.8-0.06,1.62-0.26,1.99-0.88c0.19-0.3,0.3-0.67,0.28-1.03c-0.02-0.36-0.17-0.73-0.42-1.05 c0.37,0.2,0.64,0.57,0.73,1.01c0.09,0.45-0.04,0.89-0.25,1.28c-0.26,0.38-0.66,0.65-1.09,0.73 C351,411.95,350.57,411.93,350.18,411.8z" />
                </g>
            </g>



            <g class="group1">

                <g id="target" class="teeth-ext">
                    <path
                        d="M352.55,405.45c-1.82,0-4.43-1.22-4.5-2.62c-0.07-1.4-0.17-5.79-0.14-6.38c0.03-0.59,0.42-2.23,3.14-2.16 s3.7,0.03,5.27,0.94s3.31,1.85,4.33,2.58c1.01,0.73,1.08,2.06,0.84,2.97c-0.24,0.91-1.15,1.57-1.5,2.76 c-0.35,1.19-1.6,1.78-2.97,1.85C355.66,405.45,353.81,405.45,352.55,405.45z" />
                </g>
                <g class="teeth-int">
                    <path
                        d="M349.73,400.6c-0.24-0.38-0.41-0.81-0.51-1.27c-0.1-0.44-0.1-0.97,0.13-1.42 c0.22-0.42,0.56-0.81,1.01-1.01c0.44-0.2,0.93-0.24,1.37-0.14c-0.45,0.07-0.87,0.19-1.22,0.41c-0.35,0.22-0.63,0.54-0.8,0.92 c-0.21,0.35-0.21,0.77-0.18,1.2C349.55,399.72,349.63,400.15,349.73,400.6z" />
                    <path
                        d="M351.99,400.53c0.37-0.12,0.73-0.23,1.07-0.37c0.33-0.14,0.68-0.29,0.86-0.54 c0.19-0.19,0.2-0.61,0.19-0.95c-0.02-0.36-0.09-0.73-0.17-1.11c0.24,0.31,0.39,0.68,0.48,1.07c0.06,0.39,0.11,0.82-0.18,1.24 c-0.31,0.34-0.7,0.49-1.08,0.58C352.77,400.54,352.38,400.57,351.99,400.53z" />
                    <path
                        d="M355.03,401.68c-0.68-0.38-1.18-1.22-1.03-2.09c0.09-0.41,0.31-0.83,0.68-1.06 c0.37-0.23,0.8-0.29,1.18-0.2c-0.38,0.07-0.74,0.21-1,0.44c-0.26,0.23-0.42,0.54-0.47,0.89 C354.23,400.35,354.57,401.05,355.03,401.68z" />
                    <path
                        d="M357.43,403.28c0.48-0.07,0.94-0.2,1.32-0.44c0.38-0.24,0.67-0.58,0.78-1c0.15-0.42,0.2-0.89,0.18-1.34 c-0.02-0.45-0.13-0.91-0.36-1.34c0.37,0.32,0.58,0.81,0.67,1.3c0.09,0.5,0.03,1.01-0.11,1.5c-0.17,0.5-0.54,0.94-1.01,1.15 C358.43,403.33,357.91,403.38,357.43,403.28z" />
                </g>

                <g id="target" class="teeth-ext">
                    <path
                        d="M356.11,394.84c-1.22-0.79-3.21-2.3-3.84-2.83s-1.6-1.47-1.6-3.52s0.35-3.21,0.42-3.7s0.73-2.09,2.48-2.2 c1.74-0.1,2.79-0.07,4.12,0.35c1.33,0.42,3.45,1.57,4.85,2.41s2.72,2.2,2.55,3.42c-0.17,1.22-1.12,1.33-1.22,2.69 c-0.1,1.36-0.17,2.37-1.4,3.21c-1.25,0.86-1.99,0.8-3.24,0.77C357.96,395.4,356.91,395.37,356.11,394.84z" />
                </g>
                <g class="teeth-int">
                    <path
                        d="M352.52,389.61c-0.43-0.75-0.57-1.75-0.16-2.61c0.23-0.4,0.54-0.77,0.96-0.99 c0.42-0.22,0.9-0.23,1.32-0.17c-0.43,0.1-0.84,0.2-1.17,0.43c-0.32,0.23-0.59,0.54-0.76,0.91c-0.2,0.34-0.26,0.75-0.29,1.16 C352.41,388.75,352.45,389.18,352.52,389.61z" />
                    <path
                        d="M354.99,389.57c0.4-0.01,0.8-0.05,1.15-0.18c0.34-0.13,0.64-0.34,0.79-0.66c0.18-0.31,0.27-0.68,0.23-1.04 c-0.03-0.36-0.2-0.72-0.46-1.03c0.37,0.18,0.66,0.54,0.76,0.97c0.11,0.44,0,0.88-0.19,1.28c-0.22,0.39-0.64,0.68-1.06,0.76 C355.8,389.78,355.37,389.73,354.99,389.57z" />
                    <path
                        d="M357.96,390.93c-0.38-0.15-0.7-0.47-0.88-0.86c-0.19-0.39-0.2-0.85-0.12-1.27 c0.1-0.41,0.28-0.85,0.65-1.11c0.37-0.26,0.84-0.32,1.22-0.18c-0.4,0.03-0.78,0.17-1.02,0.41c-0.25,0.25-0.4,0.59-0.46,0.95 C357.16,389.6,357.38,390.36,357.96,390.93z" />
                    <path
                        d="M360.5,392.5c0.45-0.19,0.89-0.4,1.26-0.68c0.37-0.27,0.69-0.61,0.81-1.03c0.14-0.42,0.18-0.9,0.13-1.35 c-0.06-0.44-0.22-0.91-0.59-1.23c0.47,0.19,0.76,0.69,0.89,1.18c0.12,0.51,0.08,1.02-0.05,1.53c-0.18,0.52-0.58,0.92-1.02,1.16 C361.48,392.33,361,392.47,360.5,392.5z" />
                </g>

                <g id="target" class="teeth-ext">
                    <path
                        d="M357.05,382.53c-1.01-0.42-2.83-0.93-2.83-3.38c0-1.67,0.42-2.27,1.57-3.1s2.58-1.53,5.09-1.05 s3.17,1.22,4.19,2.23s2.44,2.16,2.37,3.38c-0.07,1.22-0.59,3.17-2.62,3.31c-2.02,0.14-5.44-0.35-5.9-0.59 S357.05,382.53,357.05,382.53z" />
                </g>
                <g class="teeth-int">
                    <path
                        d="M355.9,380.47c-0.24-0.41-0.4-0.86-0.49-1.33c-0.08-0.47-0.07-0.99,0.18-1.47 c0.27-0.43,0.65-0.77,1.09-0.99c0.43-0.21,0.91-0.34,1.38-0.33c-0.44,0.15-0.86,0.35-1.22,0.6c-0.36,0.25-0.7,0.55-0.9,0.92 c-0.21,0.34-0.24,0.79-0.22,1.24C355.74,379.56,355.81,380.01,355.9,380.47z" />
                    <path
                        d="M358.34,380.26c0.39-0.06,0.76-0.14,1.09-0.28c0.33-0.14,0.62-0.33,0.75-0.63 c0.14-0.29,0.17-0.67,0.13-1.01c-0.04-0.35-0.17-0.71-0.37-1.05c0.32,0.23,0.55,0.59,0.67,0.98c0.11,0.41,0.09,0.83-0.07,1.25c-0.21,0.41-0.62,0.66-1.02,0.75C359.13,380.36,358.72,380.36,358.34,380.26z" />
                    <path
                        d="M361.34,381.52c-0.39-0.15-0.73-0.43-0.96-0.8c-0.24-0.37-0.31-0.86-0.21-1.3c0.11-0.43,0.38-0.84,0.77-1.06c0.39-0.22,0.82-0.29,1.23-0.23c-0.4,0.1-0.77,0.25-1.06,0.48c-0.29,0.23-0.49,0.54-0.56,0.9C360.35,380.23,360.76,380.95,361.34,381.52z" />
                    <path
                        d="M363.68,383.16c0.44-0.14,0.85-0.32,1.22-0.55c0.36-0.24,0.68-0.52,0.83-0.9c0.18-0.35,0.23-0.82,0.24-1.24c0-0.43-0.07-0.87-0.34-1.25c0.4,0.27,0.58,0.76,0.64,1.23c0.05,0.48,0.01,0.95-0.18,1.43c-0.22,0.46-0.62,0.8-1.05,1C364.61,383.07,364.14,383.18,363.68,383.16z" />
                </g>

                <g id="target" class="teeth-ext">
                    <path d="M360.89,374.99c-1.51-0.2-2.26-0.38-2.86-1.64c-0.6-1.26-0.65-2.23-0.6-2.74s0.14-0.88,1.12-1.72
					                c0.98-0.84,2.09-1.72,3.63-1.67s3.44,0.47,4.7,1.3c1.26,0.84,3.72,3.44,3.3,4.7c-0.42,1.26-2.74,2-4.19,2.09
					                C364.54,375.4,360.89,374.99,360.89,374.99z" />
                </g>
                <g class="teeth-int">
                    <path d="M361,372.1c0.39-0.06,0.77-0.15,1.11-0.3c0.33-0.15,0.63-0.35,0.79-0.65c0.18-0.28,0.25-0.67,0.24-1.01
						            c-0.01-0.35-0.16-0.71-0.41-1.01c0.36,0.18,0.63,0.55,0.71,0.97c0.07,0.43,0.01,0.85-0.2,1.25c-0.24,0.38-0.63,0.64-1.03,0.74
						            C361.81,372.19,361.39,372.2,361,372.1z" />
                    <path d="M364.68,369.96c-0.35,0.15-0.69,0.31-0.95,0.53c-0.28,0.23-0.38,0.46-0.37,0.84
						            c-0.04,0.7,0.1,1.43,0.63,1.97c-0.37-0.13-0.65-0.46-0.82-0.82c-0.16-0.37-0.22-0.77-0.21-1.17c0.02-0.19,0.04-0.4,0.15-0.62
						            c0.11-0.2,0.27-0.36,0.45-0.45C363.91,370.04,364.29,369.95,364.68,369.96z" />
                </g>

            </g>



            <g class="group2">

                <g id="target" class="teeth-ext">
                    <path d="M364.35,367.45c-0.96-0.31-1.72-0.98-1.95-2.56c-0.23-1.58-0.19-4.42,1.58-5.49
				                    c1.77-1.07,2.05-0.84,2.65-0.88s2.42,0,2.42,0s0.19,1.4,1.95,2.09c0.93,0.65,0.84,1.58,1.26,2.33c0.42,0.74,1.63,2.6,1.49,3.4
				                    c-0.14,0.79-0.84,1.3-2.23,1.26C370.12,367.54,365.52,367.82,364.35,367.45z" />
                </g>
                <g class="teeth-int">
                    <path d="M363.84,364.7c-0.2-0.97-0.01-2.02,0.47-2.91c0.26-0.44,0.59-0.84,1-1.14c0.4-0.31,0.89-0.49,1.36-0.6
					                c-0.42,0.26-0.84,0.5-1.17,0.84c-0.34,0.32-0.64,0.68-0.85,1.1c-0.24,0.4-0.4,0.84-0.54,1.3
					                C363.99,363.74,363.9,364.21,363.84,364.7z" />
                    <path d="M366.31,363.31c0.81,0.22,1.55,0.57,2.3,0.91c0.73,0.39,1.46,0.76,2.12,1.27c-0.81-0.22-1.55-0.57-2.3-0.91
					                C367.7,364.19,366.97,363.82,366.31,363.31z" />
                </g>

                <g id="target" class="teeth-ext">
                    <path d="M371,360.61c-0.79-0.65-1.86-0.93-1.91-2.47c-0.05-1.4,1.26-2.56,2.23-3.21s3.58-2.23,4.51-2.47
					                c0.93-0.23,2.51-0.28,3.02,1.12c0.51,1.4,0.7,2.42,0.74,3.86s0.05,4.93,0.05,5.58s-1.16,1.77-2,1.77
					                c-0.84,0-2.45-0.84-3.26-1.58C373.79,362.66,371,360.61,371,360.61z" />
                </g>
                <g class="teeth-int">
                    <path
                        d="M370.59,358.28c0.3-1.46,1.42-2.67,2.73-3.38c1.32-0.67,2.83-1.05,4.3-0.85c-0.73,0.06-1.44,0.2-2.13,0.4
						            c-0.69,0.2-1.36,0.46-1.98,0.8c-0.64,0.31-1.2,0.75-1.7,1.26C371.31,357.03,370.88,357.62,370.59,358.28z" />
                    <path d="M373.56,358.98c0.6,0.42,1.09,0.94,1.59,1.45c0.46,0.54,0.94,1.08,1.29,1.72
						            c-0.6-0.41-1.09-0.94-1.59-1.45C374.39,360.15,373.92,359.62,373.56,358.98z" />
                    <path d="M376.63,357.77c0.36,0.49,0.57,1.04,0.79,1.58c0.18,0.56,0.37,1.11,0.42,1.72
						            c-0.36-0.49-0.57-1.04-0.79-1.58C376.87,358.93,376.68,358.38,376.63,357.77z" />
                </g>

                <g id="target" class="teeth-ext">
                    <path d="M378.86,353.59c-0.05-1.02,0.7-2.14,2.19-2.51c1.49-0.37,5.77-1.3,6.74-1.49c0.98-0.19,3.26,0.19,3.26,1.81
					                s-0.33,2.51-1.02,3.95c-0.7,1.44-1.02,2.14-1.02,2.88c0,0.74,0.28,2.6-1.63,3.3s-2.88-0.74-4-1.86
					                c-1.12-1.12-3.26-3.12-3.77-3.91C379.1,354.98,378.86,353.59,378.86,353.59z" />
                </g>
                <g class="teeth-int">
                    <path d="M381.14,354c0.4-0.63,0.96-1.16,1.58-1.6c0.63-0.43,1.34-0.74,2.08-0.93c0.75-0.15,1.5-0.22,2.26-0.18
						            c0.75,0.05,1.52,0.18,2.17,0.56c-0.71-0.23-1.45-0.27-2.18-0.26c-0.73,0.02-1.47,0.09-2.16,0.26c-0.71,0.14-1.37,0.44-2.01,0.8
						            C382.26,353.03,381.67,353.48,381.14,354z" />
                    <path d="M383.89,355.54c0.47,0.57,0.81,1.21,1.15,1.84c0.3,0.65,0.62,1.3,0.8,2.02c-0.47-0.57-0.81-1.21-1.16-1.84
						            C384.38,356.91,384.07,356.26,383.89,355.54z" />
                    <path d="M387.28,354.93c0.18,0.62,0.21,1.25,0.25,1.88c-0.01,0.63,0,1.26-0.15,1.89
						            c-0.18-0.62-0.21-1.25-0.25-1.88C387.14,356.2,387.13,355.57,387.28,354.93z" />
                </g>

                <g id="target" class="teeth-ext">
                    <path d="M391.75,349.59c0.25-0.39,0.93-0.14,2.37,0.05c1.44,0.19,6.19,1.3,7.16,1.53c0.98,0.23,2.09,1.53,1.81,2.23
					                c-0.28,0.7-1.21,1.12-1.3,2.88c-0.47,0.65-1.63,3.16-2.84,4.19c-1.21,1.02-1.86,1.81-3.02,1.49c-1.16-0.33-2.47-2.88-2.98-4.33
					                c-0.51-1.44-1.21-4.37-1.26-5.02C391.66,351.96,391.1,350.61,391.75,349.59z" />
                </g>
                <g class="teeth-int">
                    <path d="M393.42,352.05c0.59-0.41,1.34-0.52,2.04-0.58c0.72-0.05,1.43,0.02,2.13,0.11
						            c0.7,0.13,1.41,0.31,2.05,0.64c0.63,0.33,1.25,0.79,1.54,1.45c-0.43-0.56-1.04-0.92-1.67-1.17c-0.63-0.26-1.3-0.43-1.99-0.53
						            c-0.68-0.12-1.37-0.19-2.06-0.2C394.78,351.77,394.08,351.79,393.42,352.05z" />
                    <path d="M394.91,354.75c0.17,0.67,0.18,1.35,0.2,2.02c-0.02,0.67-0.03,1.35-0.2,2.02
						            c-0.17-0.67-0.18-1.35-0.2-2.02C394.73,356.1,394.75,355.42,394.91,354.75z" />
                    <path d="M396.54,359.17c0.14-0.68,0.41-1.3,0.68-1.92c0.31-0.6,0.6-1.21,1.04-1.75c-0.14,0.68-0.41,1.3-0.68,1.92
						            C397.27,358.02,396.98,358.63,396.54,359.17z" />
                </g>

                <g id="target" class="teeth-ext">
                    <path d="M401.89,362.61c-0.23-1.19-0.09-6.42-0.05-6.88s0.6-2.51,2.47-2.74c1.86-0.23,2.79,0.47,3.67,0.65
					                c0.88,0.19,3.49,1.58,4.09,3.02c0.6,1.44,0.33,2.74-0.37,3.58c-0.7,0.84-2.05,1.77-3.4,2.47c-1.35,0.7-3.21,1.95-4.33,2
					                S402.12,363.82,401.89,362.61z" />
                </g>
                <g class="teeth-int">
                    <path d="M403.33,361.87c0.05-0.73,0.25-1.42,0.44-2.11c0.23-0.68,0.45-1.35,0.82-1.99
						            c-0.05,0.73-0.25,1.42-0.44,2.11C403.92,360.55,403.7,361.23,403.33,361.87z" />
                    <path d="M404.77,362.61c0.32-0.62,0.75-1.14,1.17-1.67c0.46-0.5,0.91-1,1.48-1.4c-0.32,0.62-0.75,1.14-1.17,1.67
						            C405.79,361.7,405.34,362.21,404.77,362.61z" />
                    <path d="M404.03,354.66c1.41-0.23,2.91,0.12,4.16,0.87c0.61,0.4,1.19,0.85,1.63,1.43
						            c0.47,0.55,0.82,1.19,1.09,1.85c-0.42-0.58-0.82-1.16-1.32-1.64c-0.47-0.51-1.02-0.94-1.61-1.29
						            c-0.58-0.38-1.22-0.64-1.89-0.84C405.43,354.82,404.74,354.7,404.03,354.66z" />
                </g>

                <g id="target" class="teeth-ext">
                    <path d="M410.49,363.17c0.36-0.36-0.19-1.35,0.51-2.14c0.7-0.79,1.07-1.77,3.02-1.86c1.95-0.09,3.12,0.19,4.37,1.58
					                c1.26,1.4,2.87,2.87,2.33,5.07c-0.23,0.93-1.12,1.77-3.91,2.37c-2.79,0.6-4.79,0.6-6.23,0.47c-1.44-0.14-2.98-0.88-3.07-1.95
					                S409.52,364.14,410.49,363.17z" />
                </g>
                <g class="teeth-int">
                    <path
                        d="M411.38,366c0.53-0.62,1.17-1.12,1.79-1.63c0.33-0.23,0.65-0.47,0.99-0.69c0.34-0.21,0.68-0.44,1.08-0.57
						            c-0.3,0.27-0.59,0.55-0.89,0.81c-0.3,0.27-0.62,0.51-0.93,0.76C412.76,365.16,412.11,365.64,411.38,366z" />
                    <path d="M414.96,360.61c1-0.07,2.01,0.45,2.65,1.26c0.29,0.43,0.52,0.89,0.62,1.39c0.06,0.24,0.07,0.5,0.11,0.74
						            c-0.01,0.25-0.01,0.5-0.03,0.74c-0.11-0.48-0.2-0.96-0.37-1.4c-0.16-0.45-0.37-0.87-0.65-1.23
						            C416.74,361.36,415.9,360.87,414.96,360.61z" />
                </g>

            </g>



            <g class="group3">

                <g id="target" class="teeth-ext">
                    <path d="M416.82,368.24c1.29-0.41,4.75-0.25,5.67-0.09c1.07,0.19,2.09,1.21,2.33,2.7c0.23,1.49,0.05,2.19-0.56,2.84
					                c-0.6,0.65-2.7,2.33-5.26,2.56c-3.25,0.3-4.76,0.21-5.26-0.14c-1.07-0.74-1.25-1.67-1.3-2.88
					                C412.35,370.89,414.63,368.93,416.82,368.24z" />
                </g>
                <g class="teeth-int">
                    <path d="M417.05,374.28c0.65-0.46,1.08-1.13,0.97-1.85c-0.02-0.74-0.48-1.38-1.25-1.64
						            c0.41-0.03,0.83,0.13,1.14,0.44c0.31,0.31,0.46,0.75,0.51,1.17c0.03,0.43-0.07,0.89-0.34,1.23
						            C417.81,373.97,417.45,374.2,417.05,374.28z" />
                    <path d="M419,370.42c-0.3,0.27-0.55,0.58-0.65,0.92c-0.11,0.34-0.07,0.7,0.09,1.02c0.27,0.67,1.03,0.98,1.81,1.13
						            c-0.4,0.09-0.82,0.06-1.23-0.09c-0.4-0.15-0.76-0.47-0.95-0.88c-0.17-0.4-0.22-0.89-0.02-1.3
						            C418.27,370.83,418.62,370.55,419,370.42z" />
                </g>

                <g id="target" class="teeth-ext">
                    <path d="M419.66,376.24c1.3-0.37,2.6-0.37,3.91-0.47c1.3-0.09,3.02,0.05,3.91,0.79c0.88,0.74,1.16,1.4,1.16,2.74
					                c0,1.35-0.28,3.07-1.86,3.77c-1.58,0.7-2.78,0.96-5.3,1.12c-2.28,0.14-2.84-0.42-3.81-0.93s-1.86-1.49-2-2.47
					                s0.42-2.14,1.4-3.02C418.03,376.89,419.66,376.24,419.66,376.24z" />
                </g>
                <g class="teeth-int">
                    <path d="M418.96,382.66c-0.45-0.11-0.88-0.31-1.26-0.58c-0.38-0.27-0.72-0.66-0.89-1.14
						            c-0.11-0.49-0.11-0.99,0.07-1.45c0.18-0.45,0.53-0.84,0.96-1.01c-0.34,0.31-0.57,0.7-0.67,1.11c-0.1,0.4-0.1,0.85,0.02,1.24
						            c0.1,0.39,0.39,0.72,0.7,1.02C418.21,382.14,418.58,382.4,418.96,382.66z" />
                    <path d="M420.49,378.24c0.37,0.05,0.74,0.21,1.03,0.49c0.3,0.27,0.44,0.75,0.37,1.15
						            c-0.07,0.38-0.2,0.78-0.49,1.07c-0.29,0.29-0.68,0.43-1.05,0.45c0.33-0.18,0.63-0.38,0.81-0.65c0.19-0.27,0.29-0.59,0.33-0.93
						            C421.65,379.17,421.12,378.62,420.49,378.24z" />
                    <path d="M422.86,377.73c-0.31,0.26-0.61,0.54-0.8,0.86c-0.19,0.33-0.25,0.64-0.11,1c0.19,0.71,0.81,1.27,1.6,1.44
						            c-0.41,0.08-0.85-0.03-1.22-0.28c-0.37-0.24-0.63-0.63-0.77-1.05c-0.15-0.41-0.06-0.98,0.24-1.29
						            C422.1,378.07,422.47,377.85,422.86,377.73z" />
                    <path d="M426.12,377.54c0.46,0.06,0.91,0.28,1.25,0.64c0.35,0.36,0.51,0.87,0.53,1.36
						            c-0.01,0.48-0.11,0.97-0.35,1.4c-0.25,0.42-0.61,0.77-1.06,0.92c0.71-0.6,1.04-1.46,1.01-2.32c0.01-0.42-0.11-0.83-0.36-1.17
						            C426.89,378.03,426.53,377.75,426.12,377.54z" />
                </g>

                <g id="target" class="teeth-ext">
                    <path d="M420.35,384.38c1.08-0.34,7.95-0.84,8.65-0.84s2.05,0.79,2.37,2.28c0.33,1.49,0.28,3.12,0.33,3.72
					                s-0.56,3.07-1.4,3.86c-0.84-0.28-3.24-0.32-4.42,0.09c-1.07,0.37-4.09,1.72-4.09,1.72s-3.58-1.07-3.91-3.95
					                C417.56,388.38,419,384.8,420.35,384.38z" />
                </g>
                <g class="teeth-int">
                    <path d="M420.12,387.45c-0.24,0.39-0.4,0.81-0.47,1.23c-0.07,0.42-0.07,0.87,0.04,1.26
						            c0.1,0.39,0.36,0.75,0.67,1.04c0.31,0.29,0.7,0.5,1.16,0.57c-0.46,0.1-0.96-0.05-1.35-0.33c-0.39-0.28-0.69-0.68-0.86-1.17
						            c-0.1-0.49-0.1-0.98,0.04-1.44C419.5,388.15,419.75,387.73,420.12,387.45z" />
                    <path d="M422.96,387.12c0.37,0.03,0.74,0.19,1.03,0.46c0.3,0.27,0.44,0.72,0.43,1.1c-0.02,0.38-0.09,0.8-0.35,1.12
						            c-0.25,0.32-0.61,0.5-0.97,0.58c0.29-0.23,0.57-0.46,0.72-0.75c0.15-0.28,0.22-0.61,0.2-0.95c0.03-0.34-0.06-0.63-0.26-0.89
						            C423.56,387.52,423.27,387.31,422.96,387.12z" />
                    <path d="M425.05,386.75c-0.18,0.34-0.36,0.66-0.5,0.99c-0.06,0.17-0.13,0.33-0.15,0.49
						            c-0.03,0.16,0,0.28,0.06,0.45c0.09,0.33,0.29,0.6,0.57,0.8c0.27,0.2,0.63,0.31,1,0.39c-0.37,0.08-0.78,0.05-1.15-0.13
						            c-0.38-0.18-0.65-0.55-0.79-0.93c-0.06-0.18-0.1-0.44-0.04-0.65c0.05-0.21,0.13-0.39,0.24-0.56
						            C424.49,387.27,424.75,386.98,425.05,386.75z" />
                    <path d="M428.82,386.47c0.43,0.13,0.82,0.41,1.11,0.77c0.3,0.36,0.45,0.85,0.48,1.32
						            c-0.01,0.46-0.07,0.94-0.3,1.36c-0.23,0.43-0.62,0.71-1.01,0.91c0.3-0.34,0.6-0.65,0.73-1.05c0.15-0.38,0.2-0.8,0.18-1.22
						            C430.03,387.75,429.51,387.02,428.82,386.47z" />
                </g>

                <g id="target" class="teeth-ext">
                    <path
                        d="M421.79,395.21c0,0,3.02-1.35,4.09-1.72c1.18-0.41,3.58-0.37,4.42-0.09c1.12,0.37,4.12,3.4,4.28,5.21
					                c0.09,1.07-1.16,2.19-1.72,3.16s-1.63,2.74-4,3.07c-2.37,0.33-2.8,0.84-3.72,1.3c-0.56,0.28-1.48,0.04-2.33-0.65
					                c-1.02-0.84-1.81-1.72-1.77-2.56s-0.09-1.21-0.7-1.81c-0.6-0.6-2-2.19-1.12-3.44C420.12,396.42,421.79,395.21,421.79,395.21z" />
                </g>
                <g class="teeth-int">
                    <path d="M422.4,397.59c-0.18,0.44-0.35,0.87-0.46,1.31c-0.1,0.44-0.16,0.89-0.01,1.26
						            c0.15,0.41,0.42,0.76,0.75,1.07c0.33,0.3,0.71,0.58,1.16,0.73c-0.49,0.01-0.95-0.21-1.35-0.49c-0.4-0.29-0.72-0.69-0.93-1.16
						            c-0.17-0.52-0.09-1.05,0.09-1.5C421.82,398.35,422.08,397.94,422.4,397.59z" />
                    <path d="M425.33,400.66c0.32-0.21,0.59-0.46,0.74-0.76c0.15-0.3,0.22-0.64,0.17-0.98
						            c-0.03-0.69-0.48-1.28-1.14-1.65c0.39,0.03,0.76,0.22,1.05,0.51c0.3,0.29,0.45,0.71,0.5,1.11c0.03,0.4-0.06,0.85-0.31,1.18
						            C426.08,400.39,425.71,400.6,425.33,400.66z" />
                    <path d="M427.1,396.98c-0.35,0.68-0.64,1.42-0.42,2.07c0.09,0.32,0.32,0.59,0.61,0.8
						            c0.29,0.21,0.63,0.37,1.02,0.43c-0.39,0.1-0.81,0.01-1.18-0.17c-0.37-0.18-0.68-0.53-0.83-0.94
						            C426.07,398.31,426.49,397.46,427.1,396.98z" />
                    <path d="M430.72,396.7c0.49,0.07,0.95,0.32,1.31,0.69c0.36,0.37,0.57,0.88,0.64,1.39c0.04,0.51,0,1.05-0.28,1.5
						            c-0.27,0.45-0.75,0.76-1.24,0.79c0.44-0.2,0.79-0.54,0.97-0.94c0.18-0.4,0.22-0.87,0.16-1.31
						            C432.22,397.92,431.58,397.16,430.72,396.7z" />
                </g>
            </g>
        </g>
    </switch>
    <script xlink:href="js/jquery-3.6.0.js"></script>
    <script xlink:href="js/index.js"></script>
</svg>