<svg version="1.1" xmlns="http://www.w3.org/2000/svg" xmlns:xlink="http://www.w3.org/1999/xlink" x="0px" y="0px"
    viewBox="335 420 110 75" xml:space="preserve">
    <link xmlns="http://www.w3.org/1999/xhtml" rel="stylesheet" href="css/style.css" type="text/css" />
    <switch>

        <g class="bottom-arch">


            <g class="molar-bottom-right">
                <g class="molar-ext">
                    <path d="M426.39,434.37c-1.13-0.3-3.77-1.05-5.55-2.48c-1.78-1.43-1.92-1.85-1.5-3.1s1.64-3.87,1.92-4.53
                                                    c0.28-0.66,0.49-1.19,2.83-1.01c2.34,0.17,4.43-0.14,5.44,0.03c1.01,0.17,3.07,1.12,3.56,2.79c0.49,1.67,0.38,3.7,0.42,4.88
                                                    s0.28,3.66-1.29,3.84C430.65,434.96,428.91,435.03,426.39,434.37z" />
                </g>
                <g class="molar-int">
                    <path
                        d="M421.75,429.13c-0.62-0.68-0.81-1.79-0.38-2.68c0.42-0.87,1.36-1.49,2.3-1.43
                                                    c-0.87,0.28-1.59,0.83-1.94,1.61C421.34,427.37,421.43,428.28,421.75,429.13z" />
                    <path d="M425.42,430.25c0.39-0.14,0.76-0.31,1.07-0.54c0.3-0.23,0.54-0.52,0.61-0.88
                                                    c0.21-0.71-0.25-1.44-0.81-2.04c0.38,0.17,0.72,0.46,0.96,0.82c0.25,0.37,0.34,0.86,0.23,1.31c-0.12,0.45-0.44,0.83-0.83,1.04
                                                    C426.26,430.17,425.84,430.27,425.42,430.25z" />
                    <path
                        d="M429.5,428.02c-0.4,0.07-0.78,0.14-1.14,0.27c-0.35,0.13-0.7,0.29-0.84,0.58
                                                    c-0.18,0.28-0.2,0.67-0.17,1.04c0.03,0.38,0.12,0.76,0.23,1.15c-0.26-0.32-0.43-0.69-0.53-1.1c-0.09-0.41-0.09-0.86,0.13-1.28
                                                    c0.26-0.42,0.7-0.61,1.1-0.68C428.69,427.91,429.1,427.92,429.5,428.02z" />
                    <path d="M429.67,431.89c0.47-0.09,0.92-0.24,1.31-0.47c0.38-0.24,0.7-0.56,0.86-0.96c0.2-0.4,0.31-0.85,0.33-1.3
                                                    c0.02-0.45-0.06-0.92-0.34-1.31c0.41,0.28,0.61,0.8,0.65,1.3c0.04,0.51-0.08,1.01-0.28,1.48c-0.23,0.47-0.62,0.86-1.08,1.07
                                                    C430.66,431.89,430.15,431.96,429.67,431.89z" />
                </g>
            </g>


            <g class="molar-bottom-left">
                <g class="molar-ext">
                    <path d="M357.88,423.82c1.02-0.09,1.86-0.14,2.33,0.6c0.47,0.74,2.7,4.33,3.16,5.21c0.47,0.88,1.26,2.19,0.37,2.93
                                                    c-0.88,0.74-2.74,2.6-3.35,2.79c-0.6,0.19-1.35-0.09-1.86,0.28s-1.13,1.35-2.33,1.07c-1.81-0.42-4.05-0.51-4.79-0.98
                                                    c-1.02-0.65-3.42-2.13-3.35-5.26c0.05-1.91,1.12-4,1.91-4.47c0.79-0.47,2.56-1.12,4-1.49
                                                    C355.42,424.14,357.17,423.88,357.88,423.82z" />
                </g>
                <g class="molar-int">
                    <path d="M350.91,428.14c-0.72,0.61-1.17,1.45-1.05,2.32c0.06,0.88,0.59,1.66,1.33,2.23
                                                    c-0.46-0.14-0.86-0.44-1.17-0.83c-0.32-0.38-0.49-0.88-0.56-1.37c-0.03-0.5,0.07-1.03,0.35-1.45
                                                    C350.07,428.64,350.46,428.31,350.91,428.14z" />
                    <path d="M353.93,429.12c0.4-0.07,0.82-0.01,1.21,0.17c0.4,0.17,0.71,0.56,0.83,0.99c0.09,0.44,0.07,0.85-0.06,1.27
                                                    c-0.13,0.4-0.49,0.79-0.91,0.79c0.37-0.17,0.55-0.52,0.62-0.87c0.06-0.35,0.07-0.76-0.03-1.08
                                                    C355.45,429.67,354.69,429.31,353.93,429.12z" />
                    <path d="M357.14,428.52c-0.56,0.55-1.06,1.16-1.1,1.87c-0.04,0.35,0.03,0.72,0.23,0.98
                                                    c0.2,0.27,0.57,0.41,0.97,0.45c-0.38,0.12-0.85,0.07-1.19-0.24c-0.34-0.32-0.42-0.8-0.4-1.22
                                                    C355.74,429.48,356.39,428.79,357.14,428.52z" />
                    <path d="M358.72,427.26c0.46,0.07,0.91,0.27,1.31,0.54c0.39,0.28,0.74,0.67,0.9,1.16c0.12,0.51,0.09,0.99-0.04,1.46
                                                    c-0.14,0.46-0.42,0.92-0.86,1.12c0.33-0.33,0.49-0.76,0.56-1.19c0.06-0.42,0.08-0.89-0.04-1.27c-0.1-0.4-0.39-0.74-0.71-1.04
                                                    C359.51,427.74,359.13,427.49,358.72,427.26z" />
                </g>
            </g>



            <g class="group4">

                <g id="target" class="teeth-ext">
                    <path
                        d="M355.79,436.84c-0.98,0.19-2.07,0.22-2.7,0.7c-1.21,0.93-1.72,2.42-2.37,3.16
                                                    c-0.65,0.74-1.41,1.95-1.35,2.79c0.09,1.3,0.79,2.33,1.86,3.35c1.07,1.02,2.19,2.33,4.33,2.28s5.44-1.3,7.35-2.56
                                                    c1.91-1.26,2.7-2.79,2.6-3.53c-0.09-0.74-1.53-2.23-2.14-2.88s0-1.44-0.19-2c-0.19-0.56-1.07-1.35-2.28-2.23
                                                    c-1.21-0.88-2.26-0.4-2.37-0.28c-0.45,0.45-1.23,1.12-1.65,1.12C356.46,436.75,355.79,436.84,355.79,436.84z" />
                </g>
                <g class="teeth-int">
                    <path
                        d="M352.96,445.39c-0.45-0.19-0.86-0.48-1.2-0.84c-0.34-0.37-0.6-0.84-0.65-1.38
                                                    c-0.01-0.55,0.16-1.02,0.41-1.47c0.26-0.43,0.64-0.8,1.09-0.98c-0.36,0.32-0.64,0.71-0.82,1.13c-0.17,0.41-0.32,0.88-0.28,1.3
                                                    c0.01,0.43,0.23,0.84,0.49,1.21C352.27,444.72,352.6,445.06,352.96,445.39z" />
                    <path d="M355.58,441.59c0.42,0.03,0.82,0.14,1.21,0.31c0.38,0.18,0.77,0.43,0.98,0.89
                                                    c0.05,0.11,0.06,0.24,0.07,0.37c-0.01,0.11-0.01,0.22-0.03,0.32c-0.03,0.21-0.07,0.43-0.16,0.63c-0.17,0.4-0.46,0.76-0.84,0.93
                                                    c0.28-0.3,0.46-0.66,0.55-1.03c0.04-0.19,0.08-0.37,0.09-0.56c0.01-0.2,0.02-0.38-0.05-0.51c-0.1-0.31-0.43-0.55-0.75-0.76
                                                    C356.31,441.95,355.95,441.77,355.58,441.59z" />
                    <path d="M358.86,441.2c-0.61,0.48-1.05,1.11-1.02,1.82c-0.02,0.35,0.06,0.7,0.24,0.99
                                                    c0.18,0.29,0.49,0.52,0.85,0.65c-0.39,0.03-0.81-0.14-1.1-0.46c-0.29-0.33-0.38-0.77-0.39-1.18c0.02-0.42,0.16-0.84,0.42-1.16
                                                    C358.13,441.53,358.48,441.3,358.86,441.2z" />
                    <path d="M360.39,439.88c0.48,0.07,0.94,0.26,1.35,0.53c0.41,0.27,0.76,0.69,0.92,1.21c0.1,0.53,0.06,1.02-0.11,1.5
                                                    c-0.17,0.47-0.44,0.9-0.84,1.19c0.27-0.4,0.45-0.83,0.54-1.27c0.09-0.43,0.12-0.92,0.01-1.32c-0.09-0.41-0.38-0.77-0.72-1.07
                                                    C361.22,440.35,360.82,440.1,360.39,439.88z" />
                </g>

                <g id="target" class="teeth-ext">
                    <path
                        d="M353.63,448.77c0,0,0.73,0.52,2.16,0.31c1.43-0.21,3.03-0.42,4.71-1.29c1.67-0.87,1.88-0.94,1.88-0.94
                                                    s2.48,1.16,3.1,1.92c0.66,0.8,1.29,1.6,0.98,4.12c-0.31,2.51-1.36,4.74-2.16,5.34c-0.45,0.35-1.29,0.1-2.97,0.17
                                                    s-2.83,0.28-4.01,0.42c-1.19,0.14-3.21,0.1-4.19-0.98s-1.01-3.94-0.91-5.34C352.34,451.11,353.35,448.98,353.63,448.77z" />
                </g>
                <g class="teeth-int">
                    <path d="M354.88,451.35c-0.31,0.36-0.59,0.72-0.8,1.11c-0.21,0.39-0.37,0.81-0.33,1.22c0,0.42,0.18,0.83,0.41,1.2
                                                    c0.24,0.38,0.55,0.72,0.89,1.03c-0.44-0.18-0.83-0.48-1.14-0.85c-0.31-0.37-0.53-0.85-0.56-1.37c-0.01-0.52,0.18-1.01,0.47-1.4
                                                    C354.11,451.91,354.47,451.58,354.88,451.35z" />
                    <path d="M357.85,452.33c0.41-0.03,0.82,0.05,1.21,0.22c0.39,0.17,0.75,0.49,0.9,0.95c0.07,0.46,0.07,0.86-0.1,1.29
                                                    c-0.16,0.42-0.55,0.7-0.93,0.82c0.31-0.27,0.57-0.56,0.64-0.92c0.08-0.34,0.08-0.76,0-1.08c-0.07-0.33-0.34-0.58-0.66-0.79
                                                    C358.6,452.62,358.23,452.47,357.85,452.33z" />
                    <path d="M361.23,451.7c-0.59,0.54-1.14,1.15-1.22,1.87c-0.05,0.36,0.02,0.71,0.23,0.99
                                                    c0.22,0.28,0.57,0.48,0.95,0.62c-0.41,0.02-0.84-0.1-1.18-0.41c-0.34-0.32-0.44-0.81-0.4-1.25c0.07-0.44,0.28-0.85,0.58-1.15
                                                    C360.49,452.07,360.84,451.83,361.23,451.7z" />
                    <path d="M362.63,450.59c0.49,0.04,0.97,0.23,1.38,0.52c0.42,0.29,0.74,0.74,0.89,1.25
                                                    c0.12,0.51,0.11,1.04-0.07,1.53c-0.18,0.48-0.51,0.9-0.94,1.14c0.64-0.73,0.88-1.7,0.63-2.56
                                                    C364.31,451.59,363.49,450.99,362.63,450.59z" />
                </g>

                <g id="target" class="teeth-ext">
                    <path d="M359.49,458.57c1.05-0.17,4.57-0.42,6.1,0.21s3.24,1.6,3.14,3.28c-0.1,1.67-0.6,2.62-1.92,3.66
                                                    c-0.66,0.52-3.03,1.36-4.95,1.29c-1.22-0.04-3.87,0.14-4.92-0.7c-1.05-0.84-1.67-1.08-1.6-3.42c0.07-2.34,1.67-3.35,2.27-3.59
                                                    C358.2,459.06,359.49,458.57,359.49,458.57z" />
                </g>
                <g class="teeth-int">
                    <path d="M357.5,460.56c-0.52,0.79-0.96,1.65-0.95,2.54c-0.02,0.44,0.1,0.88,0.32,1.26
                                                    c0.23,0.37,0.55,0.73,1.01,0.87c-0.5,0.02-0.96-0.31-1.27-0.7c-0.32-0.4-0.45-0.93-0.47-1.43
                                                    C356.18,462.07,356.73,461.14,357.5,460.56z" />
                    <path
                        d="M360.67,461.61c0.39,0.01,0.76,0.12,1.12,0.3c0.35,0.18,0.7,0.48,0.82,0.92c0.06,0.23,0.02,0.45,0,0.63
                                                    c-0.03,0.19-0.05,0.39-0.12,0.58c-0.06,0.19-0.15,0.38-0.29,0.53c-0.15,0.15-0.33,0.24-0.51,0.29c0.31-0.24,0.47-0.55,0.51-0.9
                                                    c0.04-0.33,0.11-0.77,0.03-1.03c-0.05-0.3-0.32-0.55-0.59-0.76C361.34,461.95,361.01,461.78,360.67,461.61z" />
                    <path d="M363.85,461.05c-0.69,0.5-1.18,1.19-1.19,1.99c-0.04,0.39,0.03,0.78,0.26,1.06
                                                    c0.24,0.28,0.64,0.43,1.07,0.48c-0.41,0.11-0.91,0.06-1.28-0.26c-0.38-0.34-0.46-0.86-0.44-1.3c0.04-0.45,0.19-0.91,0.49-1.26
                                                    C363.04,461.41,363.43,461.15,363.85,461.05z" />
                    <path d="M365.49,459.86c0.87,0.28,1.7,0.86,2.1,1.78c0.16,0.49,0.13,0.99-0.02,1.45
                                                    c-0.15,0.46-0.48,0.89-0.93,1.02c0.36-0.28,0.56-0.69,0.64-1.1c0.07-0.42,0.09-0.86-0.06-1.23c-0.13-0.39-0.4-0.73-0.71-1.04
                                                    C366.2,460.43,365.85,460.14,365.49,459.86z" />
                </g>

                <g id="target" class="teeth-ext">
                    <path d="M363.39,466.88c1.29-0.24,2.27-0.59,3.35-0.63c1.08-0.03,3,0.14,3.84,0.35c0.84,0.21,1.71,1.53,1.71,2.76
                                                    c0,1.22-0.24,2.76-2.02,4.05c-1.78,1.29-3.07,1.74-5.02,1.81c-1.95,0.07-4.36-0.03-5.34-1.64c-0.98-1.6-0.87-3.38-0.28-4.08
                                                    C360.22,468.8,361.9,467.16,363.39,466.88z" />
                </g>
                <g class="teeth-int">
                    <path
                        d="M364.13,469.25c0.39,0,0.78,0.09,1.14,0.26c0.36,0.17,0.72,0.44,0.89,0.86c0.08,0.22,0.08,0.44,0.07,0.63
                                                    c-0.01,0.2-0.02,0.4-0.08,0.6c-0.1,0.41-0.43,0.73-0.77,0.9c0.25-0.31,0.44-0.61,0.47-0.96c0.03-0.33,0.05-0.76-0.06-1.02
                                                    c-0.09-0.3-0.37-0.53-0.67-0.74C364.82,469.57,364.48,469.41,364.13,469.25z" />
                    <path d="M367.23,468.52c-0.57,0.59-1.05,1.27-1,2.02c0.01,0.37,0.13,0.73,0.37,1c0.24,0.27,0.62,0.45,1.02,0.54
                                                    c-0.41,0.07-0.87-0.03-1.23-0.32c-0.36-0.3-0.52-0.77-0.56-1.21c0-0.45,0.15-0.91,0.41-1.25
                                                    C366.5,468.95,366.85,468.68,367.23,468.52z" />
                </g>

            </g>



            <g class="group5">

                <g id="target" class="teeth-ext">
                    <path
                        d="M366.5,475.18c1.36-0.28,4.42-1.06,8.16-0.59c1.4,0.17,2.53,0.98,2.62,1.6c0.1,0.73-0.21,1.19-0.84,1.74
                                                    s-1.81,1.5-2.13,1.88c-0.31,0.38,0.1,1.5-0.28,2.09c-0.38,0.59-1.64,2.02-3.07,2.3c-0.85,0.17-2.51,0.42-4.05-0.87
                                                    c-1.53-1.29-3.35-2.93-3.42-4.6c-0.07-1.67,0.28-2.48,1.22-2.97C365.66,475.28,366.5,475.18,366.5,475.18z" />
                </g>
                <g class="teeth-int">
                    <path
                        d="M366.08,478.28c0.08,0.54,0.16,1.08,0.31,1.59c0.14,0.5,0.33,1.01,0.68,1.35
                                                    c0.37,0.38,0.76,0.76,1.18,1.05c0.42,0.29,0.95,0.42,1.49,0.49c-0.54,0.1-1.13,0.05-1.65-0.22c-0.52-0.27-0.91-0.66-1.32-1.03
                                                    c-0.41-0.45-0.6-1.02-0.69-1.56C366,479.38,365.99,478.83,366.08,478.28z" />
                    <path d="M369.08,479.99c0.6-0.62,1.29-1.12,1.97-1.63c0.7-0.48,1.4-0.95,2.15-1.37c-0.54,0.68-1.24,1.18-1.92,1.7
                                                    C370.57,479.16,369.87,479.65,369.08,479.99z" />
                </g>

                <g id="target" class="teeth-ext">
                    <path d="M372.15,484.18c0.11-0.73,1.43-1.5,2.97-2.93c1.53-1.43,3.24-2.37,3.91-2.51c0.66-0.14,1.5,0.14,1.92,0.66
                                                    s0.45,0.73,0.38,2.2s-0.07,4.53-0.14,5.27c-0.07,0.73-0.45,2.69-1.78,2.72c-1.33,0.03-2.9-0.56-4.29-1.64
                                                    C373.72,486.86,371.91,485.85,372.15,484.18z" />
                </g>
                <g class="teeth-int">
                    <path d="M373.44,484.46c0.36,0.53,0.78,1.01,1.24,1.43c0.46,0.42,0.95,0.82,1.49,1.12
                                                    c0.53,0.33,1.11,0.55,1.71,0.72c0.6,0.17,1.23,0.27,1.87,0.28c-1.27,0.29-2.64-0.02-3.79-0.66
                                                    C374.86,486.66,373.89,485.68,373.44,484.46z" />
                    <path
                        d="M375.99,483.66c0.32-0.59,0.75-1.08,1.18-1.58c0.46-0.47,0.91-0.94,1.47-1.31
                                                    c-0.32,0.6-0.75,1.08-1.18,1.58C377,482.81,376.55,483.28,375.99,483.66z" />
                    <path
                        d="M378.67,484.81c0.05-0.58,0.23-1.11,0.38-1.65c0.19-0.53,0.38-1.04,0.63-1.56
                                                    c0.07,0.59-0.1,1.15-0.25,1.69C379.23,483.81,379.03,484.34,378.67,484.81z" />
                </g>

                <g id="target" class="teeth-ext">
                    <path d="M380.87,488.47c0.12-0.97,0.45-2.06,1.6-3.21s3.7-4.19,5.23-3.91c1.53,0.28,1.64,1.4,1.78,2.09
                                                    c0.14,0.7,0.21,1.81,0.56,2.55c0.35,0.73,1.36,3.07,1.36,3.84c0,0.98-0.63,2.06-1.81,2.06c-1.19,0-3.59-0.59-5.23-0.98
                                                    C382.72,490.53,380.63,490.42,380.87,488.47z" />
                </g>
                <g class="teeth-int">
                    <path d="M382.82,488.23c0.41,0.51,0.95,0.86,1.52,1.14c0.57,0.27,1.18,0.47,1.8,0.58
                                                    c0.62,0.14,1.25,0.21,1.89,0.21c0.64,0,1.28-0.05,1.91-0.22c-1.17,0.64-2.59,0.64-3.88,0.4c-0.64-0.15-1.29-0.35-1.86-0.7
                                                    C383.63,489.29,383.1,488.83,382.82,488.23z" />
                    <path
                        d="M385.13,486.69c0.14-0.65,0.42-1.23,0.69-1.82c0.31-0.57,0.61-1.14,1.05-1.64
                                                    c-0.14,0.65-0.42,1.23-0.69,1.82C385.87,485.62,385.56,486.19,385.13,486.69z" />
                    <path
                        d="M388.23,483.9c0.15,0.58,0.15,1.15,0.16,1.73c-0.03,0.58-0.06,1.15-0.23,1.72
                                                    c-0.15-0.58-0.15-1.15-0.16-1.73C388.03,485.05,388.05,484.47,388.23,483.9z" />
                </g>

                <g id="target" class="teeth-ext">
                    <path d="M393.6,492.03c-0.84,0.17-2.09,0.1-2.09-1.43c0-1.53,0.59-3.49,1.22-5.16c0.63-1.67,1.78-4.22,3.24-4.47
                                                    c1.47-0.24,3.84,3.17,4.47,4.95c0.63,1.78,1.29,2.2,1.33,2.55c0.03,0.35-0.03,1.5-1.36,1.95c-1.31,0.45-1.92,0.52-3.7,0.84
                                                    C395,491.56,393.6,492.03,393.6,492.03z" />
                </g>
                <g class="teeth-int">
                    <path d="M393.29,489.8c0.63,0.08,1.25,0.15,1.87,0.18c0.62,0.02,1.24,0.03,1.82-0.11c0.59-0.11,1.15-0.37,1.7-0.65
                                                    c0.55-0.28,1.08-0.61,1.61-0.96c-0.43,0.47-0.92,0.87-1.46,1.22c-0.54,0.35-1.13,0.62-1.77,0.77
                                                    C395.76,490.47,394.47,490.25,393.29,489.8z" />
                    <path
                        d="M394.72,487.39c-0.11-0.66-0.07-1.32-0.04-1.97c0.08-0.65,0.14-1.3,0.36-1.94
                                                    c0.11,0.66,0.07,1.32,0.04,1.97C395,486.1,394.94,486.75,394.72,487.39z" />
                    <path
                        d="M396.36,483.34c0.36,0.48,0.58,1.02,0.81,1.55c0.19,0.55,0.39,1.09,0.44,1.69
                                                    c-0.36-0.48-0.58-1.02-0.81-1.55C396.61,484.49,396.41,483.94,396.36,483.34z" />
                </g>

                <g id="target" class="teeth-ext">
                    <path d="M400.75,480.45c0.03-0.77,0.73-2.06,2.2-1.67c1.47,0.38,5.48,2.69,6.35,3.49c0.87,0.8,0.87,1.81,0.77,2.51
                                                    c-0.1,0.7-0.59,1.92-1.67,2.58s-3.07,1.47-4.36,1.6c-1.29,0.14-2.16-0.52-2.48-0.98c-0.31-0.45-0.8-1.26-0.8-3.07
                                                    C400.75,483.1,400.75,480.45,400.75,480.45z" />
                </g>
                <g class="teeth-int">
                    <path d="M402.57,487.35c0.65-0.05,1.28-0.16,1.9-0.33c0.61-0.17,1.21-0.39,1.73-0.73c0.54-0.31,1.05-0.72,1.5-1.15
                                                    c0.45-0.44,0.85-0.94,1.04-1.57c-0.03,0.66-0.39,1.28-0.82,1.78c-0.44,0.51-0.96,0.91-1.52,1.28
                                                    C405.23,487.31,403.86,487.57,402.57,487.35z" />
                    <path
                        d="M402.11,481.14c0.34,0.56,0.54,1.17,0.75,1.77c0.16,0.62,0.34,1.23,0.37,1.89
                                                    c-0.35-0.56-0.54-1.17-0.75-1.77C402.32,482.42,402.14,481.8,402.11,481.14z" />
                    <path
                        d="M403.51,480.59c0.47,0.31,0.83,0.71,1.2,1.11c0.33,0.43,0.67,0.85,0.89,1.37
                                                    c-0.48-0.31-0.83-0.71-1.2-1.11C404.07,481.53,403.73,481.11,403.51,480.59z" />
                </g>

                <g id="target" class="teeth-ext">
                    <path d="M408.99,481.95c-0.56-0.56-2.2-2.3-2.55-3.35c-0.35-1.05-1.19-2.23-1.4-3.1c-0.21-0.87,0.52-1.53,2.58-1.53
                                                    c2.06,0,5.72-0.45,7.47,0.24c1.74,0.7,1.78,1.99,1.81,2.83c0.03,0.84,0.07,3.11-0.59,4.01c-0.77,1.05-1.29,1.74-2.79,1.99
                                                    c-1.21,0.2-2.51,0.31-3.1,0.14S408.99,481.95,408.99,481.95z" />
                </g>
                <g class="teeth-int">
                    <path
                        d="M407.87,476.09c0.9,0.19,1.75,0.52,2.59,0.85c0.41,0.19,0.83,0.37,1.23,0.58c0.4,0.22,0.81,0.42,1.16,0.73
                                                    l-1.29-0.45c-0.43-0.15-0.84-0.33-1.27-0.49C409.48,476.93,408.65,476.58,407.87,476.09z" />
                    <path d="M412.3,481.74c0.45-0.25,0.87-0.54,1.24-0.86c0.37-0.33,0.71-0.69,0.95-1.12
                                                    c0.55-0.82,0.73-1.81,0.81-2.83c0.11,0.5,0.16,1.03,0.07,1.56c-0.06,0.53-0.28,1.03-0.54,1.49
                                                    C414.25,480.87,413.32,481.54,412.3,481.74z" />
                </g>

            </g>



            <g class="group6">

                <g id="target" class="teeth-ext">
                    <path
                        d="M415.09,474.2c-0.87-0.28-2.41-0.98-3.8-2.23c-1.4-1.26-2.62-2.58-2.44-3.87c0.17-1.29,2.48-2.06,4.05-2.27
                                                    c1.57-0.21,5.06,0.38,5.97,0.56c0.91,0.17,2.06,0.1,2.62,1.64s0.59,2.27,0.42,2.9c-0.17,0.63-0.35,1.19-1.71,2.02
                                                    c-1.36,0.84-2.06,1.37-3.52,1.43C415.75,474.41,415.09,474.2,415.09,474.2z" />
                </g>
                <g class="teeth-int">
                    <path d="M414.39,471.38c0.34-0.18,0.67-0.37,0.95-0.61c0.27-0.23,0.51-0.5,0.55-0.82c0.08-0.34,0.06-0.7-0.03-1.04
                                                    c-0.1-0.33-0.26-0.68-0.6-0.88c0.41,0.05,0.71,0.41,0.88,0.78c0.17,0.38,0.2,0.81,0.14,1.23c-0.11,0.44-0.42,0.79-0.77,0.99
                                                    C415.17,471.23,414.79,471.35,414.39,471.38z" />
                    <path
                        d="M416.38,472.25c-0.27-0.3-0.47-0.67-0.59-1.08c-0.13-0.39-0.05-0.93,0.2-1.28
                                                    c0.25-0.35,0.6-0.65,1.01-0.79c0.4-0.14,0.83-0.17,1.23-0.1c-0.39,0.1-0.77,0.2-1.1,0.38c-0.33,0.18-0.61,0.42-0.8,0.73
                                                    c-0.24,0.3-0.28,0.61-0.24,1C416.14,471.49,416.25,471.87,416.38,472.25z" />
                </g>

                <g id="target" class="teeth-ext">
                    <path
                        d="M418.06,466.25c-1.19-0.16-1.71-0.66-3.03-1.74c-1.33-1.08-2.86-2.3-3.24-3.28
                                                    c-0.38-0.98-0.4-2.18,0.73-3.31c1.05-1.05,2.02-1.08,3.66-1.05s3.21,0.45,5.37,1.12c2.16,0.66,3.28,1.81,3.45,2.58
                                                    c0.18,0.77,0.42,2.27-0.17,3.24s-1.12,1.92-2.62,2.27S419.38,466.42,418.06,466.25z" />
                </g>
                <g class="teeth-int">
                    <path
                        d="M413.52,461.75c-0.29-0.37-0.48-0.82-0.57-1.3c-0.09-0.48-0.01-1.01,0.24-1.46
                                                    c0.25-0.39,0.53-0.82,0.99-1.07c0.46-0.25,0.98-0.22,1.43-0.11c-0.46,0.05-0.93,0.11-1.26,0.37c-0.34,0.25-0.59,0.62-0.81,1.01
                                                    c-0.23,0.36-0.3,0.78-0.28,1.22C413.28,460.85,413.38,461.3,413.52,461.75z" />
                    <path d="M418.02,459.48c0.37,0.15,0.69,0.42,0.91,0.78c0.22,0.36,0.27,0.84,0.15,1.25
                                                    c-0.14,0.4-0.36,0.77-0.71,1.03c-0.34,0.25-0.77,0.37-1.16,0.29c0.77-0.19,1.31-0.74,1.48-1.43
                                                    C418.95,460.73,418.57,460.03,418.02,459.48z" />
                    <path
                        d="M421.09,460.56c-0.4,0.08-0.78,0.18-1.13,0.32c-0.35,0.14-0.68,0.33-0.84,0.63
                                                    c-0.18,0.28-0.23,0.66-0.17,1.02c0.05,0.37,0.19,0.74,0.37,1.1c-0.31-0.26-0.55-0.62-0.67-1.03c-0.12-0.42-0.09-0.88,0.13-1.3
                                                    c0.27-0.39,0.68-0.61,1.09-0.71C420.27,460.5,420.69,460.48,421.09,460.56z" />
                    <path
                        d="M421.37,464.47c0.45-0.13,0.89-0.28,1.29-0.48c0.39-0.21,0.76-0.47,0.94-0.83
                                                    c0.22-0.35,0.26-0.8,0.25-1.24c-0.02-0.44-0.11-0.9-0.24-1.35c0.28,0.38,0.46,0.84,0.55,1.32c0.08,0.48,0.04,1.01-0.2,1.47
                                                    c-0.27,0.46-0.71,0.76-1.17,0.92C422.32,464.43,421.84,464.5,421.37,464.47z" />
                </g>

                <g id="target" class="teeth-ext">
                    <path
                        d="M421.44,457.81c-1.08-0.48-2.93-1.29-3.94-1.95c-1.01-0.66-3.38-2.02-3.45-3.45
                                                    c-0.07-1.43,0.94-1.92,1.29-2.48c0.35-0.56-0.35-1.85,0.31-3.07s2.02-1.99,4.29-1.88c2.27,0.1,2.86,0.42,4.53,1.5
                                                    s4.22,2.76,4.33,4.05c0.1,1.29,0.17,3.8-0.28,5.13c-0.45,1.33-1.01,2.55-2.13,2.65S422.63,458.33,421.44,457.81z" />
                </g>
                <g class="teeth-int">
                    <path
                        d="M416.84,452.12c-0.25-0.42-0.42-0.89-0.53-1.37c-0.1-0.48-0.13-1.02,0.09-1.53
                                                    c0.25-0.47,0.61-0.85,1.07-1.1c0.46-0.23,0.98-0.32,1.46-0.22c-0.48,0.06-0.93,0.23-1.31,0.48c-0.37,0.26-0.69,0.61-0.87,1
                                                    c-0.19,0.37-0.18,0.86-0.15,1.32C416.65,451.17,416.74,451.64,416.84,452.12z" />
                    <path d="M420.78,453.27c0.35-0.18,0.67-0.39,0.92-0.66c0.24-0.26,0.45-0.57,0.5-0.91
                                                    c0.09-0.33,0.02-0.69-0.11-1.02c-0.14-0.34-0.32-0.67-0.61-0.94c0.39,0.13,0.68,0.45,0.89,0.8c0.21,0.36,0.3,0.8,0.22,1.24
                                                    C422.38,452.66,421.57,453.24,420.78,453.27z" />
                    <path
                        d="M422.66,454.14c-0.29-0.28-0.5-0.65-0.61-1.06c-0.12-0.41-0.07-0.89,0.16-1.28
                                                    c0.26-0.38,0.66-0.61,1.05-0.73c0.4-0.12,0.81-0.16,1.21-0.1c-0.39,0.11-0.76,0.22-1.1,0.39c-0.34,0.16-0.66,0.36-0.82,0.66
                                                    c-0.2,0.28-0.24,0.65-0.2,1.01C422.39,453.4,422.51,453.77,422.66,454.14z" />
                    <path d="M424.82,454.91c0.46-0.13,0.89-0.29,1.28-0.51c0.38-0.23,0.72-0.51,0.91-0.89
                                                    c0.44-0.76,0.36-1.71,0.02-2.58c0.31,0.36,0.52,0.82,0.59,1.31c0.07,0.49-0.03,1.01-0.25,1.46c-0.26,0.45-0.67,0.79-1.12,0.98
                                                    C425.78,454.86,425.3,454.95,424.82,454.91z" />
                </g>

                <g id="target" class="teeth-ext">
                    <path
                        d="M423.29,445.63c-0.94-0.38-3.31-2.13-3.94-2.55c-0.63-0.42-1.85-1.12-1.74-2.86s0.77-1.47,1.22-2.44
                                                    s0.91-2.79,3.38-3.14c2.48-0.35,3.66-0.42,5.83,0.21c2.16,0.63,3.52,1.15,3.49,2.58c-0.03,1.43,0.21,5.16,0.14,6.14
                                                    c-0.07,0.98-0.7,2.62-2.44,2.72C427.48,446.4,425,446.33,423.29,445.63z" />
                </g>
                <g class="teeth-int">
                    <path d="M419.73,440.92c-0.2-0.42-0.32-0.88-0.37-1.35c-0.05-0.47-0.02-0.97,0.18-1.44
                                                    c0.45-0.92,1.49-1.42,2.42-1.29c-0.45,0.1-0.87,0.27-1.23,0.52c-0.35,0.24-0.66,0.56-0.83,0.94c-0.19,0.37-0.22,0.82-0.24,1.26
                                                    C419.65,440,419.69,440.46,419.73,440.92z" />
                    <path
                        d="M424.41,438.59c0.32,0.23,0.67,0.48,0.91,0.84c0.25,0.35,0.38,0.83,0.27,1.28
                                                    c-0.13,0.43-0.39,0.82-0.76,1.06c-0.37,0.23-0.81,0.33-1.22,0.27c0.4-0.1,0.76-0.27,1.04-0.51c0.27-0.24,0.48-0.56,0.56-0.91
                                                    c0.11-0.33,0.02-0.7-0.15-1.03C424.9,439.23,424.62,438.94,424.41,438.59z" />
                    <path d="M425.63,442.95c-0.52-0.63-0.74-1.58-0.37-2.42c0.2-0.41,0.61-0.73,1.04-0.81
                                                    c0.43-0.09,0.86-0.04,1.25,0.09c-0.41,0.03-0.81,0.07-1.16,0.2c-0.35,0.13-0.63,0.36-0.77,0.69
                                                    C425.28,441.35,425.41,442.17,425.63,442.95z" />
                    <path d="M430.02,439.67c0.26,0.4,0.44,0.85,0.53,1.33c0.09,0.48,0.06,1.01-0.2,1.48c-0.31,0.42-0.64,0.76-1.09,1
                                                    c-0.45,0.24-0.98,0.27-1.43,0.16c0.47-0.05,0.92-0.16,1.28-0.42c0.35-0.25,0.69-0.6,0.91-0.94c0.22-0.35,0.26-0.8,0.23-1.25
                                                    C430.22,440.59,430.13,440.13,430.02,439.67z" />
                </g>
            </g>
        </g>
    </switch>
    <script xlink:href="js/jquery-3.6.0.js"></script>
    <script xlink:href="js/index.js"></script>
</svg>